<?xml version="1.0" standalone="no"?><!DOCTYPE svg PUBLIC "-//W3C//DTD SVG 1.1//EN" "http://www.w3.org/Graphics/SVG/1.1/DTD/svg11.dtd"><svg t="1612228454288" class="icon" viewBox="0 0 1024 1024" version="1.1" xmlns="http://www.w3.org/2000/svg" p-id="27127" xmlns:xlink="http://www.w3.org/1999/xlink" width="200" height="200"><defs><style type="text/css"></style></defs><path d="M986.468131 320.050464H511.998822a191.948359 191.948359 0 0 0-167.628414 285.848942l-237.260254-407.039063a511.691623 511.691623 0 0 1 879.357977 121.190121z" fill="#F44336" p-id="27128"></path><path d="M1023.997645 511.998822a512.459621 512.459621 0 0 1-511.998823 511.998823 461.771738 461.771738 0 0 1-63.999852-4.24959l230.39947-411.749453a192.460357 192.460357 0 0 0-70.399838-262.399397 190.258762 190.258762 0 0 0-95.538981-25.599941h474.00851A505.701237 505.701237 0 0 1 1023.997645 511.998822z" fill="#FFC107" p-id="27129"></path><path d="M678.39844 607.998602l-230.39947 411.749453h-0.409599a511.742823 511.742823 0 0 1-340.479217-820.887712l237.260254 407.039063 1.279997 2.099196a191.948359 191.948359 0 0 0 332.799235 0z" fill="#4CAF50" p-id="27130"></path><path d="M511.282024 725.297532a211.865113 211.865113 0 0 1-105.932556-28.364735 213.913108 213.913108 0 1 1 105.932556 28.364735z" fill="#FFFFFF" p-id="27131"></path><path d="M499.710851 341.708014A170.649208 170.649208 0 1 0 586.187452 358.399176a170.188409 170.188409 0 0 0-86.476601-16.691162z" fill="#2196F3" p-id="27132"></path></svg>