<?xml version="1.0" standalone="no"?><!DOCTYPE svg PUBLIC "-//W3C//DTD SVG 1.1//EN" "http://www.w3.org/Graphics/SVG/1.1/DTD/svg11.dtd"><svg t="1614588559560" class="icon" viewBox="0 0 1044 1024" version="1.1" xmlns="http://www.w3.org/2000/svg" p-id="14910" xmlns:xlink="http://www.w3.org/1999/xlink" width="203.90625" height="200"><defs><style type="text/css"></style></defs><path d="M101.218149 948.649057c-46.369811-46.369811-32.845283-142.973585 27.049057-258.898114C164.97664 792.150943 236.463432 879.09434 329.203055 935.124528c-102.4 46.369811-187.411321 54.098113-227.984906 13.524529zM962.92381 86.943396c36.709434 36.709434 34.777358 102.4 3.864151 187.411321-52.166038-81.14717-129.449057-142.973585-220.256604-179.683019 96.603774-42.50566 175.818868-48.301887 216.392453-7.728302zM373.640791 459.833962c5.796226-104.332075 92.739623-187.411321 199.003774-187.41132s193.207547 83.079245 199.003773 187.41132H373.640791z m415.396226 125.584906h253.101887c1.932075-17.388679 1.932075-34.777358 1.932076-54.098113 0-86.943396-23.184906-166.158491-63.758491-235.713208 42.50566-110.128302 40.573585-204.8-15.456604-260.830189C912.689848-19.320755 769.716263-9.660377 609.353998 61.826415c-11.592453 0-23.184906-1.932075-36.709433-1.932075-220.256604 0-405.735849 152.633962-457.901887 357.433962 69.554717-88.875472 142.973585-152.633962 239.577358-199.003774-9.660377 7.728302-59.89434 59.89434-69.554717 67.622642C27.799282 542.913208-53.347888 877.162264 33.595508 964.10566c65.690566 65.690566 185.479245 54.098113 324.588679-11.592452 63.758491 32.845283 137.177358 50.233962 214.460378 50.233962 206.732075 0 382.550943-133.313208 446.309433-318.792453H763.920036C729.142678 749.645283 659.587961 792.150943 580.372866 792.150943s-146.837736-44.437736-183.547169-108.196226c-15.456604-28.981132-25.116981-63.758491-25.116982-98.535849h417.328302z" fill="#08BBF1" p-id="14911"></path></svg>