<?xml version="1.0" standalone="no"?><!DOCTYPE svg PUBLIC "-//W3C//DTD SVG 1.1//EN" "http://www.w3.org/Graphics/SVG/1.1/DTD/svg11.dtd"><svg t="1614589575854" class="icon" viewBox="0 0 1024 1024" version="1.1" xmlns="http://www.w3.org/2000/svg" p-id="51254" xmlns:xlink="http://www.w3.org/1999/xlink" width="200" height="200"><defs><style type="text/css"></style></defs><path d="M809.191 9.493L234.727 9c-56.841 0-103.014 40.136-103.039 89.727l-1.112 834.987c0 49.561 45.839 89.452 103.002 89.471l574.715 0.815c56.561 0 102.424-39.785 103.031-90.024l0.84-834.351c0-49.923-45.846-90.095-102.973-90.132M394.974 51.047h0.013l250.659 0.065c11.49 0 21.276 8.417 21.276 18.432 0 10.353-9.805 18.745-21.276 18.745l-250.688-0.07c-11.741-0.34-21.248-8.407-21.248-18.771 0-10.358 9.49-18.747 21.264-18.401m129.159 931.197c-34.566 0-62.956-27.783-62.924-62.348 0-34.517 28.369-62.282 63.215-62.282h0.022c34.856 0.03 62.642 28.444 62.642 62.344 0 34.551-27.864 62.322-62.955 62.286m327.886-172.386h-0.018l-662.144-0.863 0.786-690.987 662.144 0.525-0.768 691.325z" p-id="51255"></path></svg>