<?xml version="1.0" encoding="utf-8"?>
<!-- Generator: Adobe Illustrator 21.0.0, SVG Export Plug-In . SVG Version: 6.00 Build 0)  -->
<svg version="1.1" id="图层_1" xmlns="http://www.w3.org/2000/svg" xmlns:xlink="http://www.w3.org/1999/xlink" x="0px" y="0px"
	 viewBox="0 0 200 200" style="enable-background:new 0 0 200 200;" xml:space="preserve">
<style type="text/css">
	.st0{fill:url(#SVGID_1_);}
	.st1{fill:url(#SVGID_2_);}
</style>
<linearGradient id="SVGID_1_" gradientUnits="userSpaceOnUse" x1="86.1042" y1="183.3359" x2="86.1042" y2="16.6667">
	<stop  offset="0" style="stop-color:#AB0316"/>
	<stop  offset="0.6724" style="stop-color:#E63948"/>
	<stop  offset="1" style="stop-color:#FD4F5C"/>
</linearGradient>
<path class="st0" d="M72.6,53C63.4,63.9,57.4,80,57,98v3.9c0.4,18,6.4,34.1,15.6,45c11.9,15.5,29.7,25.4,49.6,25.4
	c11.9,0,23.5-3.6,33.4-10.2c-16.3,14.6-37.7,22.2-59.5,21.1c-44.4-2.1-79.4-38.7-79.4-83.2c0-46,37.3-83.3,83.3-83.3h0.3
	c20.4,0.1,40,7.6,55.2,21.2c-9.9-6.6-21.5-10.2-33.4-10.2C102.3,27.7,84.5,37.5,72.6,53L72.6,53L72.6,53z"/>
<linearGradient id="SVGID_2_" gradientUnits="userSpaceOnUse" x1="143.9504" y1="172.7319" x2="143.9504" y2="26.8611">
	<stop  offset="0" style="stop-color:#FE4B4C"/>
	<stop  offset="6.602222e-02" style="stop-color:#F74647"/>
	<stop  offset="0.6949" style="stop-color:#BB1918"/>
	<stop  offset="0.995" style="stop-color:#A40706"/>
</linearGradient>
<path class="st1" d="M183.3,100c0,23.7-10.1,46.3-27.8,62.1c-17.5,13.1-44.4,12.1-51,7.5c21-4.6,39.9-39,39.9-69.7
	c0-30.7-15.9-65.9-36.9-70.5c6.6-4.5,36.3-4,47.9,8.4C173.3,53.7,183.4,76.3,183.3,100z"/>
</svg>
