<?xml version="1.0" encoding="utf-8"?>
<!-- Generator: Adobe Illustrator 21.0.0, SVG Export Plug-In . SVG Version: 6.00 Build 0)  -->
<svg version="1.1" id="图层_1" xmlns="http://www.w3.org/2000/svg" xmlns:xlink="http://www.w3.org/1999/xlink" x="0px" y="0px"
	 viewBox="0 0 200 200" style="enable-background:new 0 0 200 200;" xml:space="preserve">
<style type="text/css">
	.st0{fill:#59C56C;}
</style>
<path class="st0" d="M100,187.5c-3.9,0-7.1-3.2-7.1-7.1v-28.2c0-3.9,3.2-7.1,7.1-7.1s7.1,3.2,7.1,7.1v28.2
	C107,184.4,103.9,187.5,100,187.5z"/>
<path class="st0" d="M147,187.5H53c-3.9,0-7.1-3.2-7.1-7.1s3.2-7.1,7.1-7.1H147c3.9,0,7.1,3.2,7.1,7.1S150.9,187.5,147,187.5z
	 M168.6,26.7c1.9,0,3.5,1.6,3.5,3.5v108.7c0,1.9-1.6,3.5-3.5,3.5h-137c-1.9,0-3.5-1.6-3.5-3.5V30.1c0-1.9,1.6-3.5,3.5-3.5
	L168.6,26.7 M168.6,12.5h-137c-9.7,0-17.6,7.9-17.6,17.6v108.7c0,9.7,7.9,17.6,17.6,17.6h137c9.7,0,17.6-7.9,17.6-17.6V30.1
	C186.2,20.4,178.3,12.5,168.6,12.5z"/>
<path class="st0" d="M152.2,47.2c1,0,1.9,0.8,1.9,1.9v70.7c0,1-0.8,1.9-1.9,1.9H48.1c-1,0-1.9-0.8-1.9-1.9V49.1c0-1,0.8-1.9,1.9-1.9
	L152.2,47.2 M152.2,37.8H48.1c-6.2,0-11.3,5.1-11.3,11.3v70.7c0,6.2,5.1,11.3,11.3,11.3h104.1c6.2,0,11.3-5.1,11.3-11.3V49.1
	C163.5,42.9,158.4,37.8,152.2,37.8z"/>
<polygon class="st0" points="53.7,55.3 53.7,114 149,114 "/>
</svg>
