<?xml version="1.0" standalone="no"?><!DOCTYPE svg PUBLIC "-//W3C//DTD SVG 1.1//EN" "http://www.w3.org/Graphics/SVG/1.1/DTD/svg11.dtd"><svg t="1612228965309" class="icon" viewBox="0 0 1024 1024" version="1.1" xmlns="http://www.w3.org/2000/svg" p-id="44546" xmlns:xlink="http://www.w3.org/1999/xlink" width="200" height="200"><defs><style type="text/css"></style></defs><path d="M830.464 721.92H186.368c-48.128 0-87.04-38.912-87.04-87.04V190.976c0-48.128 38.912-87.04 87.04-87.04h643.584c48.128 0 87.04 38.912 87.04 87.04V634.88c0.512 48.128-38.4 87.04-86.528 87.04zM186.368 161.792c-15.872 0-29.184 12.8-29.184 29.184V634.88c0 15.872 12.8 29.184 29.184 29.184h643.584c15.872 0 29.184-12.8 29.184-29.184V190.976c0-15.872-12.8-29.184-29.184-29.184H186.368z" p-id="44547" fill="#1afa29"></path><path d="M508.416 896c-16.896 0-30.72-13.824-30.72-30.72v-136.704c0-16.896 13.824-30.72 30.72-30.72s30.72 13.824 30.72 30.72V865.28c0 16.896-13.824 30.72-30.72 30.72z" p-id="44548" fill="#1afa29"></path><path d="M753.152 921.6H263.68c-16.896 0-30.72-13.824-30.72-30.72s13.824-30.72 30.72-30.72h489.984c16.896 0 30.72 13.824 30.72 30.72s-13.824 30.72-31.232 30.72zM230.4 359.936c-14.336 0-25.6-11.264-25.6-25.6V228.864c0-14.336 11.264-25.6 25.6-25.6h102.4c14.336 0 25.6 11.264 25.6 25.6s-11.264 25.6-25.6 25.6H256v80.384c0 13.824-11.264 25.088-25.6 25.088zM792.064 617.984h-102.4c-14.336 0-25.6-11.264-25.6-25.6s11.264-25.6 25.6-25.6h76.8V486.4c0-14.336 11.264-25.6 25.6-25.6s25.6 11.264 25.6 25.6v105.984c0 13.824-11.776 25.6-25.6 25.6z" p-id="44549" fill="#1afa29"></path></svg>