<?xml version="1.0" standalone="no"?><!DOCTYPE svg PUBLIC "-//W3C//DTD SVG 1.1//EN" "http://www.w3.org/Graphics/SVG/1.1/DTD/svg11.dtd"><svg t="1614589746937" class="icon" viewBox="0 0 1024 1024" version="1.1" xmlns="http://www.w3.org/2000/svg" p-id="59293" xmlns:xlink="http://www.w3.org/1999/xlink" width="200" height="200"><defs><style type="text/css"></style></defs><path d="M504.32 655.36c-10.24 0-17.92 2.56-25.6 10.24-7.68 5.12-10.24 15.36-10.24 23.04s2.56 17.92 10.24 25.6c5.12 5.12 15.36 10.24 25.6 10.24s17.92-2.56 25.6-10.24c5.12-5.12 10.24-15.36 10.24-25.6s-2.56-17.92-10.24-23.04c-7.68-7.68-15.36-10.24-25.6-10.24zM514.56 307.2c-40.96 0-71.68 12.8-94.72 38.4-23.04 23.04-33.28 56.32-33.28 94.72h46.08c0-28.16 5.12-48.64 17.92-66.56 15.36-17.92 35.84-28.16 64-28.16 23.04 0 43.52 5.12 56.32 20.48 12.8 12.8 17.92 30.72 17.92 53.76 0 15.36-5.12 30.72-15.36 46.08l-20.48 20.48c-30.72 28.16-51.2 48.64-56.32 66.56-7.68 15.36-10.24 30.72-10.24 48.64v12.8h46.08v-12.8c0-15.36 2.56-30.72 10.24-40.96 5.12-10.24 15.36-20.48 25.6-30.72 25.6-23.04 40.96-35.84 46.08-43.52 12.8-17.92 20.48-40.96 20.48-66.56 0-33.28-10.24-61.44-30.72-79.36-25.6-23.04-53.76-33.28-89.6-33.28z" fill="#919dbd" p-id="59294"></path><path d="M512 128C299.52 128 128 299.52 128 512s171.52 384 384 384 384-171.52 384-384S724.48 128 512 128z m0 719.36c-184.32 0-335.36-151.04-335.36-335.36S327.68 176.64 512 176.64 847.36 327.68 847.36 512 696.32 847.36 512 847.36z" fill="#919dbd" p-id="59295"></path></svg>