<?xml version="1.0" standalone="no"?><!DOCTYPE svg PUBLIC "-//W3C//DTD SVG 1.1//EN" "http://www.w3.org/Graphics/SVG/1.1/DTD/svg11.dtd"><svg t="1611899232641" class="icon" viewBox="0 0 1024 1024" version="1.1" xmlns="http://www.w3.org/2000/svg" p-id="4485" xmlns:xlink="http://www.w3.org/1999/xlink" width="200" height="200"><defs><style type="text/css"></style></defs><path d="M759.466667 763.733333v-234.666666c0-123.733333-102.4-221.866667-221.866667-221.866667s-221.866667 98.133333-221.866667 221.866667v234.666666h192V640c-25.6-8.533333-46.933333-25.6-59.733333-46.933333-17.066667-29.866667-17.066667-72.533333 0-102.4s51.2-51.2 89.6-51.2c59.733333 0 102.4 46.933333 102.4 102.4 0 46.933333-29.866667 85.333333-76.8 98.133333v123.733333h196.266667z m59.733333 0h12.8c51.2 0 89.6 38.4 89.6 89.6s-38.4 85.333333-89.6 85.333334h-597.333333c-51.2 0-89.6-38.4-89.6-89.6s38.4-89.6 89.6-89.6h17.066666v-234.666667c0-153.6 128-281.6 285.866667-281.6s281.6 123.733333 281.6 281.6v238.933333zM234.666667 819.2c-17.066667 0-29.866667 12.8-29.866667 29.866667s12.8 29.866667 29.866667 29.866666h597.333333c17.066667 0 29.866667-12.8 29.866667-29.866666s-12.8-29.866667-29.866667-29.866667h-597.333333zM772.266667 247.466667c0-25.6 21.333333-42.666667 42.666666-42.666667s46.933333 21.333333 46.933334 42.666667-21.333333 42.666667-46.933334 42.666666-42.666667-17.066667-42.666666-42.666666z m-567.466667 0c0-25.6 21.333333-42.666667 42.666667-42.666667s46.933333 21.333333 46.933333 42.666667-21.333333 42.666667-46.933333 42.666666-42.666667-17.066667-42.666667-42.666666z m328.533333 337.066666c25.6 0 46.933333-21.333333 46.933334-42.666666s-21.333333-42.666667-46.933334-42.666667-46.933333 21.333333-46.933333 42.666667 21.333333 42.666667 46.933333 42.666666z m328.533334-85.333333c-17.066667 0-29.866667-12.8-29.866667-29.866667s12.8-29.866667 29.866667-29.866666h89.6c17.066667 0 29.866667 12.8 29.866666 29.866666s-12.8 29.866667-29.866666 29.866667h-89.6z m-746.666667 0c-17.066667 0-29.866667-17.066667-29.866667-29.866667s12.8-29.866667 29.866667-29.866666h89.6c17.066667 0 29.866667 12.8 29.866667 29.866666s-12.8 29.866667-29.866667 29.866667H115.2z m388.266667-384c0-17.066667 12.8-29.866667 29.866666-29.866667s29.866667 12.8 29.866667 29.866667v89.6c0 17.066667-12.8 29.866667-29.866667 29.866667s-29.866667-12.8-29.866666-29.866667V115.2z" p-id="4486" fill="#00baff"></path></svg>