<?xml version="1.0" standalone="no"?><!DOCTYPE svg PUBLIC "-//W3C//DTD SVG 1.1//EN" "http://www.w3.org/Graphics/SVG/1.1/DTD/svg11.dtd"><svg t="1611823623166" class="icon" viewBox="0 0 1024 1024" version="1.1" xmlns="http://www.w3.org/2000/svg" p-id="7871" xmlns:xlink="http://www.w3.org/1999/xlink" width="200" height="200"><defs><style type="text/css"></style></defs><path d="M511.014556 313.623907c68.825528 0 124.609019-55.777351 124.609019-124.609019 0-68.829622-55.782467-124.706233-124.609019-124.706233-68.829622 0-124.603903 55.782467-124.603902 124.603902 0 68.831668 55.774281 124.71135 124.603902 124.71135z m0-185.569416c33.564443 0 60.854996 27.293623 60.854996 60.85909 0 33.56956-27.290553 60.865229-60.854996 60.865229-33.56956 0-60.85909-27.294646-60.859089-60.865229 0-33.565467 27.28953-60.85909 60.859089-60.85909zM296.164257 681.967066c-23.112394-39.942711-64.945151-62.355163-108.073415-62.355163-21.115923 0-42.531676 5.381567-62.253855 16.739243-59.663868 34.458813-80.084966 110.658286-45.615921 170.224939 23.107277 39.937594 64.939011 62.35107 108.073414 62.35107 21.1149 0 42.526559-5.381567 62.252833-16.734126 59.562561-34.362622 79.978543-110.561072 45.616944-170.225963z m-77.496002 115.0452c-9.361205 5.381567-19.61985 8.16496-30.373775 8.16496-10.559497 0-21.018709-2.783393-30.185486-7.961322-9.365298-5.284353-17.2335-13.052271-22.708188-22.514783-16.835434-29.085432-6.777357-66.440202 22.305005-83.169212 9.369392-5.378497 19.623943-8.1711 30.384008-8.1711 10.559497 0 21.017686 2.792603 30.179347 7.967462 9.366322 5.28026 17.235546 13.052271 22.714327 22.51376 16.733103 29.082362 6.770194 66.436108-22.315238 83.170235z m674.237011-158.772097c-19.624966-11.356652-41.035602-16.734126-62.253856-16.734126-43.032072 0-84.962044 22.315238-108.073414 62.35107-34.463929 59.668984-13.945617 135.864364 45.616944 170.230056 19.623943 11.356652 41.040718 16.739243 62.252832 16.739243 43.038212 0 84.96716-22.315238 108.073415-62.36028 34.366715-59.563584 13.950733-135.762033-45.615921-170.225963z m-9.564843 138.452306c-5.473665 9.461489-13.245675 17.2335-22.708188 22.509666-9.162684 5.183046-19.624966 7.970532-30.185486 7.970532-10.748808 0-20.911262-2.787486-30.378891-8.1711-29.080316-16.83134-39.044248-54.082756-22.310122-83.169211 5.478781-9.463536 13.245675-17.23043 22.714328-22.509667 9.160637-5.183046 19.618826-7.966439 30.17423-7.966439 10.760065 0 20.922519 2.783393 30.281677 8.164961 29.189809 16.736173 39.151695 54.089919 22.412452 83.171258zM666.799622 253.562996c112.653733 58.764382 182.674483 174.207647 182.674483 301.206087 0 7.373944-0.198521 14.942317-0.694825 22.315238-1.096984 17.526165 12.148691 32.769334 29.777187 33.862225 0.704035 0 1.39886 0.102331 2.092661 0.102331 16.631796 0 30.679743-12.94994 31.777751-29.78128 0.596588-8.821923 0.89437-17.657148 0.894369-26.498514 0-75.100442-20.819165-148.410098-60.160171-211.960483-38.248116-61.757552-92.438319-112.153336-156.784836-145.723919-15.636119-8.1711-34.861996-2.089591-43.027979 13.546527-8.261151 15.538905-2.190899 34.861996 13.45136 42.931788zM139.086755 608.959286c0.598634 0 1.293459 0 1.890047-0.102331 17.531282-0.99977 30.975479-16.135492 29.979801-33.666774a350.496699 350.496699 0 0 1-0.591471-20.318768c0-127.891785 70.714552-243.636926 184.569646-302.207903 15.631002-8.064676 21.809725-27.288506 13.740956-42.926672-8.067746-15.641235-27.288506-21.814842-42.929742-13.751188-64.945151 33.371038-119.624495 83.771939-158.373007 145.82625-39.744189 63.847144-60.762899 137.456628-60.762899 213.05849 0 7.965415 0.198521 16.035208 0.699942 24.102954 0.99977 16.83134 15.039531 29.985942 31.776727 29.985942z m551.319518 233.571686c-53.990658 33.968649-116.341728 51.897997-180.489724 51.897997-64.739467 0-127.794571-18.328437-182.17818-52.892651-14.839986-9.463536-34.56626-5.080715-44.023656 9.758248-9.461489 14.845103-5.080715 34.56626 9.764388 44.032866 64.638159 41.137932 139.447982 62.947657 216.443587 62.947657 76.098165 0 150.208047-21.313422 214.350926-61.656245 14.942317-9.360182 19.421328-29.081339 10.060124-43.925418-9.366322-15.039531-29.087479-19.522636-43.927465-10.162454z m0 0" p-id="7872" fill="#919dbd"></path></svg>