<?xml version="1.0" standalone="no"?><!DOCTYPE svg PUBLIC "-//W3C//DTD SVG 1.1//EN" "http://www.w3.org/Graphics/SVG/1.1/DTD/svg11.dtd"><svg t="1611823769187" class="icon" viewBox="0 0 1024 1024" version="1.1" xmlns="http://www.w3.org/2000/svg" p-id="8758" xmlns:xlink="http://www.w3.org/1999/xlink" width="200" height="200"><defs><style type="text/css"></style></defs><path d="M184.32 778.24l573.44 0L757.76 327.68 184.32 327.68 184.32 778.24zM204.8 757.76 204.8 430.08l532.48 0 0 327.68L204.8 757.76zM737.28 348.16l0 61.44L204.8 409.6l0-61.44L737.28 348.16z" p-id="8759" fill="#919dbd"></path><path d="M286.72 245.76 286.72 307.2 307.2 307.2 307.2 266.24 819.2 266.24 819.2 686.08 778.24 686.08 778.24 706.56 839.68 706.56 839.68 245.76Z" p-id="8760" fill="#919dbd"></path><path d="M245.76 368.64l40.96 0 0 20.48-40.96 0 0-20.48Z" p-id="8761" fill="#919dbd"></path><path d="M327.68 368.64l40.96 0 0 20.48-40.96 0 0-20.48Z" p-id="8762" fill="#919dbd"></path><path d="M409.6 368.64l40.96 0 0 20.48-40.96 0 0-20.48Z" p-id="8763" fill="#919dbd"></path></svg>