<?xml version="1.0" standalone="no"?><!DOCTYPE svg PUBLIC "-//W3C//DTD SVG 1.1//EN" "http://www.w3.org/Graphics/SVG/1.1/DTD/svg11.dtd"><svg t="1611898780685" class="icon" viewBox="0 0 1024 1024" version="1.1" xmlns="http://www.w3.org/2000/svg" p-id="1678" xmlns:xlink="http://www.w3.org/1999/xlink" width="200" height="200"><defs><style type="text/css"></style></defs><path d="M584.677 117.271h-217.127v217.132h217.127v-217.132zM548.492 298.209h-144.755v-144.748h144.752v144.748z" p-id="1679" fill="#00baff"></path><path d="M584.677 406.777h-217.127v217.129h217.127v-217.129zM548.492 587.716h-144.755v-144.752h144.752v144.752z" p-id="1680" fill="#00baff"></path><path d="M874.185 406.777h-217.127v217.129h217.127v-217.129zM837.998 587.716h-144.755v-144.752h144.752v144.752z" p-id="1681" fill="#00baff"></path><path d="M946.559 209.552l-164.657-164.657-164.691 164.657 164.691 164.656z" p-id="1682" fill="#00baff"></path><path d="M302.638 117.271h-217.129v217.132h217.127v-217.132zM266.45 298.209h-144.752v-144.748h144.752v144.748z" p-id="1683" fill="#00baff"></path><path d="M302.638 406.777h-217.129v217.129h217.127v-217.129zM266.45 587.716h-144.752v-144.752h144.752v144.752z" p-id="1684" fill="#00baff"></path><path d="M369.121 898.98l217.127 0.061 0.061-217.127-217.127-0.061-0.061 217.127zM405.36 718.048l144.752 0.039-0.039 144.752-144.752-0.039 0.039-144.752z" p-id="1685" fill="#00baff"></path><path d="M658.624 899.060l217.132 0.061 0.061-217.127-217.132-0.061-0.061 217.127zM694.866 718.129l144.749 0.039-0.039 144.752-144.749-0.039 0.039-144.752z" p-id="1686" fill="#00baff"></path><path d="M87.473 900.474l217.132 0.061 0.061-217.127-217.132-0.061-0.061 217.127zM123.714 719.544l144.749 0.039-0.039 144.752-144.749-0.039 0.039-144.752z" p-id="1687" fill="#00baff"></path></svg>