<?xml version="1.0" standalone="no"?><!DOCTYPE svg PUBLIC "-//W3C//DTD SVG 1.1//EN" "http://www.w3.org/Graphics/SVG/1.1/DTD/svg11.dtd"><svg t="1611823846523" class="icon" viewBox="0 0 1024 1024" version="1.1" xmlns="http://www.w3.org/2000/svg" p-id="9599" xmlns:xlink="http://www.w3.org/1999/xlink" width="200" height="200"><defs><style type="text/css"></style></defs><path d="M571.884902 204.330712 392.977209 204.330712 392.977209 383.241474l178.907693 0L571.884902 204.330712zM542.067806 353.420285 422.794305 353.420285 422.794305 234.150878l119.272477 0L542.066783 353.420285zM571.884902 442.875666 392.977209 442.875666 392.977209 621.784382l178.907693 0L571.884902 442.875666zM542.067806 591.966263 422.794305 591.966263 422.794305 472.693786l119.272477 0L542.066783 591.966263zM810.43088 442.875666 631.523187 442.875666 631.523187 621.784382l178.907693 0L810.43088 442.875666zM780.613784 591.966263 661.340283 591.966263 661.340283 472.693786l119.272477 0L780.612761 591.966263zM870.066095 280.368502 734.393089 144.695496 598.692455 280.368502 734.393089 416.040485ZM339.491041 204.330712 160.582325 204.330712 160.582325 383.241474l178.907693 0L339.490018 204.330712zM309.672922 353.420285 190.400444 353.420285 190.400444 234.150878l119.272477 0L309.672922 353.420285zM339.491041 442.875666 160.582325 442.875666 160.582325 621.784382l178.907693 0L339.490018 442.875666zM309.672922 591.966263 190.400444 591.966263 190.400444 472.693786l119.272477 0L309.672922 591.966263zM394.271692 848.438519l178.907693 0.050142 0.050142-178.907693-178.907693-0.050142L394.271692 848.438519zM424.130743 699.357132l119.272477 0.032746-0.032746 119.272477-119.272477-0.032746L424.130743 699.357132zM632.8146 848.505034l178.910763 0.050142 0.050142-178.907693-178.910763-0.050142L632.8146 848.505034zM662.676721 699.422623l119.270431 0.032746-0.032746 119.272477-119.270431-0.032746L662.676721 699.422623zM162.201196 849.670579l178.910763 0.050142 0.050142-178.907693-178.910763-0.050142L162.201196 849.670579zM192.062294 700.588169l119.270431 0.032746-0.032746 119.272477-119.270431-0.032746L192.062294 700.588169z" p-id="9600" fill="#919dbd"></path></svg>