<?xml version="1.0" standalone="no"?><!DOCTYPE svg PUBLIC "-//W3C//DTD SVG 1.1//EN" "http://www.w3.org/Graphics/SVG/1.1/DTD/svg11.dtd"><svg t="1611899103395" class="icon" viewBox="0 0 1024 1024" version="1.1" xmlns="http://www.w3.org/2000/svg" p-id="2848" xmlns:xlink="http://www.w3.org/1999/xlink" width="200" height="200"><defs><style type="text/css"></style></defs><path d="M414.254545 467.781818h139.636364v46.545455h-139.636364zM279.272727 495.709091c9.309091 9.309091 23.272727 9.309091 32.581818 0l97.745455-97.745455-97.745455-97.745454c-9.309091-9.309091-23.272727-9.309091-32.581818 0-9.309091 9.309091-9.309091 23.272727 0 32.581818l65.163637 65.163636-65.163637 65.163637c-9.309091 9.309091-9.309091 23.272727 0 32.581818zM414.254545 584.145455h162.909091v279.272727h-162.909091zM623.709091 491.054545h162.909091v372.363637h-162.909091z" p-id="2849" fill="#00baff"></path><path d="M158.254545 793.6c0 39.563636 30.254545 69.818182 69.818182 69.818182h116.363637v-46.545455h-116.363637c-13.963636 0-23.272727-11.636364-23.272727-23.272727v-558.545455h744.727273v93.09091h46.545454v-139.636364h-837.818182v605.090909z" p-id="2850" fill="#00baff"></path><path d="M833.163636 397.963636h162.909091v465.454546h-162.909091zM926.254545 25.6h-698.181818c-39.563636 0-69.818182 30.254545-69.818182 69.818182v46.545454h837.818182v-46.545454c0-37.236364-32.581818-69.818182-69.818182-69.818182z" p-id="2851" fill="#00baff"></path></svg>