<?xml version="1.0" standalone="no"?><!DOCTYPE svg PUBLIC "-//W3C//DTD SVG 1.1//EN" "http://www.w3.org/Graphics/SVG/1.1/DTD/svg11.dtd"><svg t="1611899163368" class="icon" viewBox="0 0 1024 1024" version="1.1" xmlns="http://www.w3.org/2000/svg" p-id="3079" xmlns:xlink="http://www.w3.org/1999/xlink" width="200" height="200"><defs><style type="text/css"></style></defs><path d="M718.067262 150.268422c-26.942629 0-48.817846 21.837354-48.817846 48.743144 0 11.613502 4.233418 22.094204 11.026124 30.490431l-49.331545 67.406203c-7.55814-4.78498-16.463973-7.600095-26.069749-7.600095-22.929222 0-42.064025 19.482727-47.25014 37.427424l-90.483804 0c-5.180999-17.944697-24.245194-37.427424-47.242977-37.427424-26.917046 0-48.747237 21.783119-48.747237 48.725748 0 8.253988 2.258437 15.859199 5.837962 22.688745l-37.208437 37.193087c-7.777127-5.223978-17.121959-8.295943-27.161616-8.295943-26.948769 0-48.747237 21.831214-48.747237 48.742121 0 26.90579 21.799492 48.705282 48.747237 48.705282 26.873044 0 48.742121-21.799492 48.742121-48.710398 0-8.541537-2.369977-16.431228-6.241145-23.405059l36.988426-36.951587c7.922437 5.443989 17.454534 6.92062 27.789926 6.92062 22.997784 0 42.063001-21.173229 47.242977-39.119973l90.483804 0c5.186116 17.946744 24.283056 39.119973 47.25014 39.119973 26.909883 0 48.747237-20.926612 48.747237-47.843658 0-8.831132-2.521426-16.560164-6.64842-23.683399l51.376111-70.060659c6.027274 2.666736 12.712533 4.314259 19.718087 4.314259 26.878161 0 48.710398-21.745257 48.710398-48.689932C766.777661 172.047448 744.945423 150.268422 718.067262 150.268422L718.067262 150.268422zM312.611857 464.502219c-14.423501 0-26.145473-11.726066-26.145473-26.145473 0-14.462387 11.721973-26.145473 26.145473-26.145473s26.145473 11.683087 26.145473 26.145473C338.757331 452.776154 327.035358 464.502219 312.611857 464.502219L312.611857 464.502219zM419.891186 364.126114c-14.425547 0-26.108634-11.719926-26.108634-26.145473 0-14.455223 11.689227-26.140357 26.108634-26.140357 14.46034 0 26.182312 11.685133 26.182312 26.140357C446.073498 352.406189 434.351526 364.126114 419.891186 364.126114L419.891186 364.126114zM604.874247 364.126114c-14.456247 0-26.145473-11.719926-26.145473-26.145473 0-14.455223 11.689227-26.140357 26.145473-26.140357 14.423501 0 26.145473 11.685133 26.145473 26.140357C631.019721 352.406189 619.297748 364.126114 604.874247 364.126114L604.874247 364.126114zM718.067262 225.194902c-14.462387 0-26.145473-11.758812-26.145473-26.182312 0-14.382569 11.689227-26.108634 26.145473-26.108634 14.423501 0 26.108634 11.726066 26.108634 26.108634C744.175897 213.43609 732.490763 225.194902 718.067262 225.194902L718.067262 225.194902zM865.006869 65.383126 165.645644 65.383126c-10.153244 0-18.769482 6.674003-18.769482 16.827247l0 699.292664c0 10.190083 8.617261 12.972453 18.769482 12.972453l699.361225 0c10.147104 0 10.988262-2.78237 10.988262-12.972453L875.995131 82.210373C875.995131 72.057129 875.153974 65.383126 865.006869 65.383126L865.006869 65.383126zM838.979076 737.795583c0 8.911974-8.776897 19.664875-17.683754 19.664875L209.346959 757.460458c-8.868995 0-24.331151-10.752902-24.331151-19.664875L185.015807 125.916804c0-8.874111 15.462157-23.517623 24.331151-23.517623l611.949386 0c8.911974 0 17.683754 14.642488 17.683754 23.517623L838.980099 737.795583 838.979076 737.795583zM766.890224 608.834442c0 56.047504-45.424562 101.504812-101.509928 101.504812l0 0c-56.123228 0-101.585653-45.456285-101.585653-101.504812l0 0c0-56.123228 45.462424-101.579513 101.585653-101.579513l0 0C721.465662 507.254929 766.890224 552.711214 766.890224 608.834442L766.890224 608.834442 766.890224 608.834442zM807.711955 916.110781c0 28.922726-32.863479 46.616714-61.743226 46.616714L587.163887 962.727495c-28.955472 0-64.195068-22.661116-64.195068-51.541887l13.552667-161.578002c0-28.91147 23.436782-48.233538 52.360532-48.233538l151.824871 0c28.885887 0 52.399417 19.322068 52.399417 48.233538L807.711955 916.110781 807.711955 916.110781zM466.883453 608.834442c0 56.047504-45.456285 101.504812-101.542674 101.504812l0 0c-56.123228 0-101.583606-45.456285-101.583606-101.504812l0 0c0-56.123228 45.460378-101.579513 101.583606-101.579513l0 0C421.427168 507.254929 466.883453 552.711214 466.883453 608.834442L466.883453 608.834442 466.883453 608.834442zM507.7103 916.110781c0 28.922726-32.900318 46.616714-61.786205 46.616714l-158.837588 0c-28.91761 0-64.156182-22.661116-64.156182-51.541887l13.513782-161.578002c0-28.91147 23.474644-48.233538 52.397371-48.233538l151.825894 0c28.922726 0 52.366671 19.322068 52.366671 48.233538L507.7103 916.110781 507.7103 916.110781zM507.7103 916.110781" p-id="3080" fill="#00baff"></path></svg>