<?xml version="1.0" standalone="no"?><!DOCTYPE svg PUBLIC "-//W3C//DTD SVG 1.1//EN" "http://www.w3.org/Graphics/SVG/1.1/DTD/svg11.dtd"><svg t="1611213375580" class="icon" viewBox="0 0 1024 1024" version="1.1" xmlns="http://www.w3.org/2000/svg" p-id="3826" xmlns:xlink="http://www.w3.org/1999/xlink" width="64" height="64"><defs><style type="text/css"></style></defs><path d="M512 1024C229.23 1024 0 794.77 0 512S229.23 0 512 0s512 229.23 512 512-229.23 512-512 512z m0.79-760.61c-137.2 0-248.42 111.23-248.42 248.42s111.22 248.43 248.42 248.43S761.21 649 761.21 511.82 650 263.39 512.79 263.39z m0 450.36c-111.53 0-201.94-90.41-201.94-201.94s90.41-201.94 201.94-201.94 201.94 90.42 201.94 201.94-90.42 201.94-201.94 201.94zM609.88 569l-63.21-61.68L601.55 457c6.12-6.12 6.12-26 0-32.09s-27.84-8.12-34-2l-58.49 47.5-51.38-47c-6.06-6.07-26.48-5.47-32.54 0.6s-8.72 27.2-2.66 33.27l54.85 53.22-57.49 56.68c-6.11 6.1-1.48 25.27 4.64 31.39s21.15 7.65 27.27 1.54l61.08-57L574 601.7c6.05 6.07 26.69 4 32.76-2.05S616 575 609.88 569z" fill="#a7b4ce" p-id="3827"></path></svg>