<?xml version="1.0" standalone="no"?><!DOCTYPE svg PUBLIC "-//W3C//DTD SVG 1.1//EN" "http://www.w3.org/Graphics/SVG/1.1/DTD/svg11.dtd"><svg t="1611214082310" class="icon" viewBox="0 0 1024 1024" version="1.1" xmlns="http://www.w3.org/2000/svg" p-id="18206" xmlns:xlink="http://www.w3.org/1999/xlink" width="64" height="64"><defs><style type="text/css"></style></defs><path d="M512 64C264 64 64 264 64 512s200 448 448 448 448-200 448-448S760 64 512 64z m0 832C299.2 896 128 724.8 128 512S299.2 128 512 128s384 171.2 384 384-171.2 384-384 384z" fill="#77f3f8" p-id="18207"></path><path d="M800 512h-64c0-123.2-100.8-224-224-224s-224 100.8-224 224h-64c0-158.4 129.6-288 288-288s288 129.6 288 288zM512 640c27.2 0 48 20.8 48 48s-20.8 48-48 48-48-20.8-48-48 20.8-48 48-48m0-64c-62.4 0-112 49.6-112 112s49.6 112 112 112 112-49.6 112-112-49.6-112-112-112z" fill="#77f3f8" p-id="18208"></path><path d="M480 392h64v192h-64z" fill="#77f3f8" p-id="18209"></path></svg>