<?xml version="1.0" standalone="no"?><!DOCTYPE svg PUBLIC "-//W3C//DTD SVG 1.1//EN" "http://www.w3.org/Graphics/SVG/1.1/DTD/svg11.dtd"><svg t="1612227805262" class="icon" viewBox="0 0 1117 1024" version="1.1" xmlns="http://www.w3.org/2000/svg" p-id="25509" xmlns:xlink="http://www.w3.org/1999/xlink" width="218.1640625" height="200"><defs><style type="text/css"></style></defs><path d="M139.636364 46.545455v837.818181h930.909091V46.545455H139.636364z m884.363636 884.363636v-46.545455H139.636364V93.090909H93.090909V46.545455a46.545455 46.545455 0 0 1 46.545455-46.545455h930.909091a46.545455 46.545455 0 0 1 46.545454 46.545455v837.818181a46.545455 46.545455 0 0 1-46.545454 46.545455h-46.545455zM46.545455 139.636364v837.818181h930.90909V139.636364H46.545455z m0-46.545455h930.90909a46.545455 46.545455 0 0 1 46.545455 46.545455v837.818181a46.545455 46.545455 0 0 1-46.545455 46.545455H46.545455a46.545455 46.545455 0 0 1-46.545455-46.545455V139.636364a46.545455 46.545455 0 0 1 46.545455-46.545455z m0 372.363636h930.90909v512H46.545455V465.454545z m512-139.636363a46.545455 46.545455 0 1 0 0-93.090909 46.545455 46.545455 0 0 0 0 93.090909z m139.636363 0a46.545455 46.545455 0 1 0 0-93.090909 46.545455 46.545455 0 0 0 0 93.090909z m139.636364 0a46.545455 46.545455 0 1 0 0-93.090909 46.545455 46.545455 0 0 0 0 93.090909z" p-id="25510" fill="#a7b4ce"></path></svg>