<?xml version="1.0" standalone="no"?><!DOCTYPE svg PUBLIC "-//W3C//DTD SVG 1.1//EN" "http://www.w3.org/Graphics/SVG/1.1/DTD/svg11.dtd"><svg t="1612244532387" class="icon" viewBox="0 0 1185 1024" version="1.1" xmlns="http://www.w3.org/2000/svg" p-id="2161" xmlns:xlink="http://www.w3.org/1999/xlink" width="74.0625" height="64"><defs><style type="text/css"></style></defs><path d="M1160.892632 25.007158A84.345263 84.345263 0 0 0 1100.961684 0H84.722526A84.938105 84.938105 0 0 0 0 80.410947v175.804632h1185.630316V85.315368c0-22.635789-8.892632-44.301474-24.791579-60.30821zM126.976 170.684632a40.151579 40.151579 0 0 1-42.307368-42.684632 40.151579 40.151579 0 0 1 42.307368-42.684632 40.151579 40.151579 0 0 1 42.361263 42.684632 40.205474 40.205474 0 0 1-42.361263 42.684632z m127.029895 0a40.151579 40.151579 0 0 1-42.307369-42.684632 40.151579 40.151579 0 0 1 42.307369-42.684632 40.151579 40.151579 0 0 1 42.361263 42.684632 40.205474 40.205474 0 0 1-42.361263 42.684632z m127.029894 0a40.151579 40.151579 0 0 1-42.361263-42.684632 40.205474 40.205474 0 0 1 42.361263-42.684632 40.151579 40.151579 0 0 1 42.361264 42.684632 40.205474 40.205474 0 0 1-42.361264 42.684632z m677.456843 0h-381.03579c-28.186947 0-42.307368-14.228211-42.307368-42.684632s14.120421-42.684632 42.361263-42.684632h381.035789c28.240842 0 42.361263 14.228211 42.361263 42.684632s-14.120421 42.684632-42.361263 42.684632zM0 943.535158A84.884211 84.884211 0 0 0 84.560842 1024h1016.454737A84.884211 84.884211 0 0 0 1185.684211 938.954105V341.315368L0 343.309474v600.171789z" p-id="2162" fill="#57d9f9"></path></svg>