<?xml version="1.0" standalone="no"?><!DOCTYPE svg PUBLIC "-//W3C//DTD SVG 1.1//EN" "http://www.w3.org/Graphics/SVG/1.1/DTD/svg11.dtd"><svg t="1611213174966" class="icon" viewBox="0 0 1142 1024" version="1.1" xmlns="http://www.w3.org/2000/svg" p-id="3064" xmlns:xlink="http://www.w3.org/1999/xlink" width="71.375" height="64"><defs><style type="text/css"></style></defs><path d="M419.78318 624.939286a157.930648 157.930648 0 0 0 38.019328-18.982312c23.249229-14.770099 38.019328-44.310296-2.133459-82.329624-137.252509-206.89079-86.541837-344.143299-65.644882-394.799267a164.112207 164.112207 0 0 0-59.135099-10.557885h-6.345672c-128.773379 0-164.659248 124.561165-166.792707 196.332904a272.699785 272.699785 0 0 0 92.996917 230.140019 60.995037 60.995037 0 0 1 6.345672 33.75241 60.174476 60.174476 0 0 1-8.424426 27.352035c-52.789427 46.443755-232.218774 92.996918-244.910118 192.120691a376.856332 376.856332 0 0 0-2.133458 84.463082 462.249384 462.249384 0 0 0 122.427706 44.310296 654.97182 654.97182 0 0 0 16.903558-65.644883c10.557885-63.347312 88.675296-160.447035 278.662528-236.430986z" p-id="3065" fill="#a7b4ce"></path><path d="M797.460074 605.792862a56.126375 56.126375 0 0 1-12.691345-33.752411 91.848132 91.848132 0 0 1 6.345673-42.231541s120.348952-67.559525 118.215493-287.141659c-4.212213-86.541837-54.704069-242.776659-211.103003-242.776659h-8.479131c-162.580494 0-206.89079 156.234821-211.103002 242.776659 0 204.812035 120.348952 287.141659 120.348952 287.141659a77.023329 77.023329 0 0 1 14.770098 48.577213 54.211733 54.211733 0 0 1-18.982312 27.352035c-67.559525 57.00164-308.25743 114.00328-325.106283 236.430987-12.691344 52.789427-84.463083 132.985592 154.101363 166.792706a2165.569985 2165.569985 0 0 0 274.450315 14.770099c553.112843 0 439.109563-114.00328 424.339464-179.429347-14.770099-122.427707-257.546758-181.562806-325.106282-238.564445z" p-id="3066" fill="#a7b4ce"></path></svg>