<?xml version="1.0" standalone="no"?><!DOCTYPE svg PUBLIC "-//W3C//DTD SVG 1.1//EN" "http://www.w3.org/Graphics/SVG/1.1/DTD/svg11.dtd"><svg t="1612228347758" class="icon" viewBox="0 0 1024 1024" version="1.1" xmlns="http://www.w3.org/2000/svg" p-id="26284" xmlns:xlink="http://www.w3.org/1999/xlink" width="200" height="200"><defs><style type="text/css"></style></defs><path d="M512 0a512 512 0 1 0 512 512A513.616842 513.616842 0 0 0 512 0z m204.8 710.332632a35.301053 35.301053 0 0 1-32.067368 19.402105 33.414737 33.414737 0 0 1-25.6-12.934737l-179.2-147.132632a39.343158 39.343158 0 0 1-19.132632-38.534736v-210.997895a44.732632 44.732632 0 1 1 89.465263 0V512l160.067369 134.736842a42.576842 42.576842 0 0 1 6.467368 63.59579z" p-id="26285" fill="#a7b4ce"></path></svg>