<?xml version="1.0" standalone="no"?><!DOCTYPE svg PUBLIC "-//W3C//DTD SVG 1.1//EN" "http://www.w3.org/Graphics/SVG/1.1/DTD/svg11.dtd"><svg t="1611213487349" class="icon" viewBox="0 0 1024 1024" version="1.1" xmlns="http://www.w3.org/2000/svg" p-id="7642" xmlns:xlink="http://www.w3.org/1999/xlink" width="64" height="64"><defs><style type="text/css"></style></defs><path d="M512 896C299.92 896 128 724.08 128 512S299.92 128 512 128s384 171.92 384 384-171.92 384-384 384z m0-128a48 48 0 1 0 0-96 48 48 0 0 0 0 96z m0-496a48 48 0 0 0-48 48v240a48 48 0 0 0 96 0V320a48 48 0 0 0-48-48z" p-id="7643" fill="#a7b4ce"></path></svg>