<?xml version="1.0" standalone="no"?><!DOCTYPE svg PUBLIC "-//W3C//DTD SVG 1.1//EN" "http://www.w3.org/Graphics/SVG/1.1/DTD/svg11.dtd"><svg t="1612517513172" class="icon" viewBox="0 0 1024 1024" version="1.1" xmlns="http://www.w3.org/2000/svg" p-id="19208" xmlns:xlink="http://www.w3.org/1999/xlink" width="200" height="200"><defs><style type="text/css"></style></defs><path d="M938.2 238.7L535.6 6.3c-14.6-8.4-32.6-8.4-47.2 0L85.8 238.7c-14.6 8.4-23.6 24-23.6 40.8v464.8c0 16.8 9 32.4 23.6 40.8l402.6 232.4c14.6 8.4 32.6 8.4 47.2 0l402.6-232.4c14.6-8.4 23.6-24 23.6-40.8V279.6c-0.1-16.9-9.1-32.5-23.6-40.9zM803.8 338.9L548.6 530.3v274c0 20.2-16.4 36.6-36.6 36.6s-36.6-16.4-36.6-36.6V531.6L221.9 362.5c-16.8-11.2-21.4-33.9-10.1-50.7 11.2-16.8 33.9-21.4 50.7-10.1l248.3 165.6L760 280.4c16.1-12.1 39-8.8 51.2 7.4s8.8 39-7.4 51.1z" p-id="19209" fill="#a7b4ce"></path></svg>