<?xml version="1.0" standalone="no"?><!DOCTYPE svg PUBLIC "-//W3C//DTD SVG 1.1//EN" "http://www.w3.org/Graphics/SVG/1.1/DTD/svg11.dtd"><svg t="1612665207394" class="icon" viewBox="0 0 1024 1024" version="1.1" xmlns="http://www.w3.org/2000/svg" p-id="62183" xmlns:xlink="http://www.w3.org/1999/xlink" width="200" height="200"><defs><style type="text/css"></style></defs><path d="M903.872 0H120.128A120.128 120.128 0 0 0 0 120.128v783.744A120.128 120.128 0 0 0 120.128 1024h783.744A120.128 120.128 0 0 0 1024 903.872V120.128A120.128 120.128 0 0 0 903.872 0zM198.112 822.944a61.728 61.728 0 1 1 61.728-61.728 61.728 61.728 0 0 1-61.728 61.728z m0-250.272a25.6 25.6 0 1 1 0 0.832z m0-250.272a60.8 60.8 0 1 1 0 1.664zM852.16 790.016H365.376a35.456 35.456 0 1 1 0-70.4H852.16a35.456 35.456 0 1 1 0 70.4z m0-250.272H365.376a35.456 35.456 0 0 1 0-70.4H852.16a35.456 35.456 0 1 1 0 70.4z m0-250.272H365.376a35.456 35.456 0 1 1 0-70.4H852.16a35.456 35.456 0 1 1 0 70.4z" p-id="62184" fill="#a7b4ce"></path></svg>