<?xml version="1.0" standalone="no"?><!DOCTYPE svg PUBLIC "-//W3C//DTD SVG 1.1//EN" "http://www.w3.org/Graphics/SVG/1.1/DTD/svg11.dtd"><svg t="1612665496243" class="icon" viewBox="0 0 1024 1024" version="1.1" xmlns="http://www.w3.org/2000/svg" p-id="73082" xmlns:xlink="http://www.w3.org/1999/xlink" width="200" height="200"><defs><style type="text/css"></style></defs><path d="M232.832 949.632h-74.24V606.272A353.152 353.152 0 0 1 512 253.44a353.152 353.152 0 0 1 353.408 352.832v343.488H232.768zM537.536 395.52l-174.336 286.72h139.52l-34.88 215.04 174.336-286.72h-139.52L537.6 395.52z m267.392-314.88a34.304 34.304 0 0 1 12.544 46.784l-62.72 108.8-59.2-34.24 62.72-108.8a34.176 34.176 0 0 1 46.72-12.544zM511.872 0c20.48 0 37.12 15.424 37.12 34.56v123.264h-74.24V34.496c0-19.072 16.64-34.496 37.12-34.496zM219.072 80.64a34.176 34.176 0 0 1 46.72 12.544l62.656 108.8-59.264 34.24-62.656-108.8a34.304 34.304 0 0 1 12.544-46.784zM4.608 295.552a34.176 34.176 0 0 1 46.72-12.544l108.544 62.848-34.176 59.328L17.088 342.4a34.304 34.304 0 0 1-12.48-46.848z m1014.784 0a34.304 34.304 0 0 1-12.48 46.848l-108.608 62.848-34.176-59.392 108.608-62.848a34.176 34.176 0 0 1 46.72 12.544zM37.376 949.632h949.248a37.184 37.184 0 0 1 0 74.368H37.376a37.184 37.184 0 0 1 0-74.368z" fill="#a7b4ce" p-id="73083"></path></svg>