<?xml version="1.0" standalone="no"?><!DOCTYPE svg PUBLIC "-//W3C//DTD SVG 1.1//EN" "http://www.w3.org/Graphics/SVG/1.1/DTD/svg11.dtd"><svg t="1612514469031" class="icon" viewBox="0 0 1024 1024" version="1.1" xmlns="http://www.w3.org/2000/svg" p-id="8038" xmlns:xlink="http://www.w3.org/1999/xlink" width="200" height="200"><defs><style type="text/css"></style></defs><path d="M251.960147 60.244966V180.679898h520.077706V60.301966H901.629779c36.18098 0 65.479963 26.794985 65.479963 60.301966v843.091522c0 33.335981-29.241983 60.301966-65.422963 60.301966H122.311221a67.924962 67.924962 0 0 1-46.193974-17.57899 58.196967 58.196967 0 0 1-19.227989-42.665976V120.489932c0-33.335981 29.239983-60.301966 65.421963-60.301966h129.705926zM186.937184 301.169829v60.244966H837.059816V301.169829H186.937184z m0 180.735898v60.187966H837.059816v-60.187966H186.937184z m0 180.677898v60.245966h390.085779v-60.245966H186.937184zM381.950074 0h260.095852c35.83998 0 65.023963 26.964985 65.023964 60.244966v60.244966h-390.199779V60.187966C316.92711 27.021985 346.054094 0 381.950074 0z" p-id="8039" fill="#a7b4ce"></path></svg>