<?xml version="1.0" standalone="no"?><!DOCTYPE svg PUBLIC "-//W3C//DTD SVG 1.1//EN" "http://www.w3.org/Graphics/SVG/1.1/DTD/svg11.dtd"><svg t="1612515599264" class="icon" viewBox="0 0 1025 1024" version="1.1" xmlns="http://www.w3.org/2000/svg" p-id="13233" xmlns:xlink="http://www.w3.org/1999/xlink" width="200.1953125" height="200"><defs><style type="text/css"></style></defs><path d="M360.806 587.465H73.613c-20.675 0-37.984 7.164-52.217 21.492C7.164 623.237 0 640.547 0 661.222v289.02c0 20.628 7.164 38.081 21.396 52.313 14.233 14.233 31.542 21.397 52.217 21.397h287.193c20.628 0 38.226-7.068 52.939-21.397 14.52-14.232 21.78-31.637 21.78-52.313v-289.02c0-20.675-7.212-37.985-21.78-52.313-14.713-14.184-32.311-21.444-52.939-21.444z m0-527.555H73.613c-20.675 0-37.984 7.212-52.217 21.445C7.164 95.587 0 113.04 0 133.715v287.819c0 20.627 7.164 38.417 21.396 52.938 14.233 14.713 31.542 21.974 52.217 21.974h287.193c20.628 0 38.226-7.26 52.939-21.974 14.52-14.617 21.78-32.31 21.78-52.938V133.716c0-20.724-7.212-38.081-21.78-52.41-14.713-14.184-32.311-21.396-52.939-21.396z m527.507 527.555H601.072c-20.531 0-38.225 7.164-52.842 21.492-14.617 14.329-22.022 31.638-22.022 52.313v289.02c0 20.628 7.405 38.081 22.022 52.314 14.713 14.232 32.215 21.396 52.842 21.396h287.24c20.532 0 37.986-7.068 52.218-21.396 14.136-14.233 21.252-31.638 21.252-52.314V661.27c0-20.675-7.02-38.08-21.252-52.313-14.184-14.232-31.686-21.492-52.217-21.492z m113.714-362.634L798.977 21.78C784.36 7.116 767.002 0 746.856 0s-37.552 7.26-52.169 21.925L491.205 225.408c-14.57 14.569-22.07 32.215-22.31 52.553-0.337 20.435 6.78 37.84 21.396 52.458l203.05 203.05c14.569 14.568 32.167 21.877 52.986 21.877 20.627-0.048 38.225-7.453 52.794-22.022l203.483-203.482c14.665-14.665 21.829-32.07 21.636-52.458-0.288-20.434-7.645-37.984-22.213-52.553z" p-id="13234" fill="#a7b4ce"></path></svg>